PathFileType	4	(X/Y/Z)	./resultDataOpenSim/trcMotMarkerGrf/sub09/qtm-02-01.trc
DataRate	CameraRate	NumFrames	NumMarkers	Units	OrigDataRate	OrigDataStartFrame	OrigNumFrames
250.000000	250.000000	6	24	m	250.000000	1	486
Frame#	Time	L.Toe.Tip			R.Toe.Tip			L.Ankle.Lat			R.Ankle.Lat			L.Ankle.Med			R.Ankle.Med			L.Heel			R.Heel			L.Knee.Lat			R.Knee.Lat			L.Knee.Med			R.Knee.Med			L.Thigh.Upper			R.Thigh.Upper			L.ASIS			R.ASIS			V.Sacral			L.Acromium			R.Acromium			C7			L.Elbow			R.Elbow			L.Wrist.Lat			R.Wrist.Lat
		X1	Y1	Z1	X2	Y2	Z2	X3	Y3	Z3	X4	Y4	Z4	X5	Y5	Z5	X6	Y6	Z6	X7	Y7	Z7	X8	Y8	Z8	X9	Y9	Z9	X10	Y10	Z10	X11	Y11	Z11	X12	Y12	Z12	X13	Y13	Z13	X14	Y14	Z14	X15	Y15	Z15	X16	Y16	Z16	X17	Y17	Z17	X18	Y18	Z18	X19	Y19	Z19	X20	Y20	Z20	X21	Y21	Z21	X22	Y22	Z22	X23	Y23	Z23	X24	Y24	Z24

1	0	-1.5179384	0.035971069	-0.0022329929	-0.84012637	0.12355844	0.11252172	-1.6634876	0.086164148	-0.0376252	-0.98683162	0.078670452	0.13133233	-1.636353	0.10295775	0.055265384	-0.98239067	0.12190668	0.042165518	NaN	NaN	NaN	-1.0287486	0.033301825	0.073414597	-1.4927576	0.46910554	-0.10055943	-1.1343076	0.51297255	0.18286577	-1.4925756	0.47080573	0.025848954	-1.1289537	0.49696768	0.053589744	-1.3814486	0.87365426	-0.14632619	-1.333388	0.86406473	0.22177435	-1.2741018	0.94697435	-0.098109237	-1.2543141	0.94930615	0.14186224	-1.4272375	1.0089678	0.047380841	-1.2472162	1.4004288	-0.13220855	-1.2727473	1.4096637	0.19495776	-1.3184666	1.4584999	0.034210077	-1.3536567	1.0347183	-0.2039578	-1.4252407	1.0810019	0.27964385	-1.0945834	0.94415781	-0.18108828	-1.3095259	0.83576649	0.2933956
2	0.004	-1.5178283	0.035960749	-0.0022763574	-0.82685852	0.12758134	0.11287126	-1.6628544	0.087353216	-0.037785304	-0.97093749	0.081036159	0.13197089	-1.6357061	0.10383128	0.055128428	-0.96907706	0.12327641	0.042369036	NaN	NaN	NaN	-1.0135714	0.033603175	0.074114534	-1.4892403	0.46914176	-0.10077888	-1.1279069	0.51156975	0.18313758	-1.4889461	0.47083775	0.025852089	-1.12279	0.4954175	0.053672235	-1.3756203	0.87275842	-0.14602276	-1.3267242	0.86245518	0.22197283	-1.2679568	0.94580565	-0.09809735	-1.2478458	0.94806185	0.14196809	-1.4220497	1.0075506	0.044745507	-1.2411348	1.3992561	-0.13182295	-1.2668375	1.4084026	0.19540109	-1.3124934	1.4573305	0.034563813	-1.3471647	1.0333856	-0.20377824	-1.4192432	1.0796221	0.2796145	-1.0877118	0.94383277	-0.18047952	-1.3038234	0.83431682	0.29377984
3	0.008	-1.5177189	0.035955917	-0.0023241119	-0.81393205	0.13150101	0.11303118	-1.6622155	0.088564069	-0.037962391	-0.95601663	0.082980816	0.13241607	-1.6349596	0.10474847	0.05494317	-0.95606563	0.12463216	0.042534467	NaN	NaN	NaN	-0.99883782	0.033950383	0.074683511	-1.485651	0.46914308	-0.10098306	-1.1214107	0.51021405	0.18338811	-1.4853344	0.47084525	0.025870644	-1.11665	0.49388971	0.053769167	-1.3697684	0.87185187	-0.14572415	-1.3199896	0.86085168	0.22217174	-1.2617864	0.9446502	-0.098097144	-1.2412851	0.94678773	0.14207475	-1.4164365	1.006133	0.043259244	-1.2350258	1.3980769	-0.13145271	-1.2608572	1.4071323	0.1958095	-1.3064963	1.4561681	0.034932839	-1.3406642	1.0320585	-0.20356992	-1.4132946	1.0782696	0.27961714	-1.080851	0.94346606	-0.17987694	-1.2980731	0.83285891	0.29416223
4	0.012	-1.5176069	0.035957502	-0.0023794319	-0.80154132	0.13521306	0.11295396	-1.6615489	0.089813085	-0.038174801	-0.94233466	0.084428943	0.13261055	-1.6340953	0.10573937	0.054686794	-0.94357177	0.12593903	0.042622375	NaN	NaN	NaN	-0.98479594	0.034352192	0.075048246	-1.4819354	0.4690951	-0.10117461	-1.1147534	0.50894366	0.18362895	-1.4816028	0.47080853	0.025881808	-1.110503	0.49241411	0.053897077	-1.3638688	0.87093224	-0.14541644	-1.3131265	0.85926075	0.22237662	-1.2555782	0.94351583	-0.098109116	-1.2345995	0.94549503	0.14218719	-1.4103364	1.0047122	0.043028817	-1.2288716	1.3968935	-0.13110541	-1.2547699	1.4058511	0.1961853	-1.3004521	1.4550111	0.035323377	-1.334142	1.030742	-0.20329894	-1.4073557	1.0769409	0.27965637	-1.0740066	0.94303088	-0.17928636	-1.2922214	0.83140173	0.29454454
5	0.016	-1.5174863	0.035964147	-0.0024431773	-0.78976336	0.13861909	0.1127148	-1.6608284	0.09110649	-0.038435728	-0.92963496	0.085533796	0.1326037	-1.6331509	0.10679976	0.054368956	-0.93170979	0.12714591	0.042604438	NaN	NaN	NaN	-0.97152177	0.034769664	0.075182054	-1.4780465	0.46899534	-0.10135568	-1.1078873	0.50779013	0.18389817	-1.4776085	0.47071335	0.025851003	-1.1042862	0.4910298	0.054059604	-1.3579173	0.87000271	-0.14508367	-1.3061349	0.85768783	0.2225933	-1.249333	0.94240458	-0.098123095	-1.2278429	0.94421131	0.14231114	-1.40396	1.0032945	0.043450605	-1.2226828	1.3957198	-0.13077793	-1.2485839	1.4045679	0.1965538	-1.2943595	1.4538489	0.035731843	-1.3275988	1.0294401	-0.20293619	-1.4013424	1.0756136	0.27971327	-1.0671831	0.94251887	-0.1787089	-1.2862498	0.82996698	0.2949287
6	0.02	-1.5173524	0.035974317	-0.0025144237	-0.7786191	0.14164464	0.11241773	-1.6600358	0.092448705	-0.038759358	-0.91765456	0.086400938	0.13244028	-1.632147	0.10790894	0.054003136	-0.92044173	0.12822547	0.042492174	NaN	NaN	NaN	-0.95900567	0.035143146	0.075064431	-1.4739279	0.46884692	-0.10153021	-1.1007894	0.50675449	0.18421701	-1.4733423	0.47055224	0.025770173	-1.0979312	0.48977304	0.054247569	-1.3519127	0.86906915	-0.14472305	-1.2990404	0.85613281	0.22282269	-1.2430355	0.94130676	-0.098130749	-1.2210916	0.94294223	0.14244322	-1.3974935	1.0018946	0.044010675	-1.21647	1.3945701	-0.13045294	-1.2423269	1.4032913	0.19693262	-1.2882282	1.4526746	0.036155181	-1.3210417	1.0281589	-0.20249276	-1.395211	1.0742827	0.27978218	-1.0603641	0.94192828	-0.17813576	-1.2801907	0.82856096	0.29531367
